<svg width="152" height="68" viewBox="0 0 152 68" fill="none" xmlns="http://www.w3.org/2000/svg">
<circle cx="2.5" cy="2.5" r="2.5" fill="#750B0B"/>
<circle cx="23.5" cy="2.5" r="2.5" fill="#750B0B"/>
<circle cx="44.5" cy="2.5" r="2.5" fill="#750B0B"/>
<circle cx="65.5" cy="2.5" r="2.5" fill="#750B0B"/>
<circle cx="86.5" cy="2.5" r="2.5" fill="#750B0B"/>
<circle cx="107.5" cy="2.5" r="2.5" fill="#750B0B"/>
<circle cx="128.5" cy="2.5" r="2.5" fill="#750B0B"/>
<circle cx="149.5" cy="2.5" r="2.5" fill="#750B0B"/>
<circle cx="2.5" cy="44.5" r="2.5" fill="#750B0B"/>
<circle cx="23.5" cy="44.5" r="2.5" fill="#750B0B"/>
<circle cx="44.5" cy="44.5" r="2.5" fill="#750B0B"/>
<circle cx="65.5" cy="44.5" r="2.5" fill="#750B0B"/>
<circle cx="86.5" cy="44.5" r="2.5" fill="#750B0B"/>
<circle cx="107.5" cy="44.5" r="2.5" fill="#750B0B"/>
<circle cx="128.5" cy="44.5" r="2.5" fill="#750B0B"/>
<circle cx="149.5" cy="44.5" r="2.5" fill="#750B0B"/>
<circle cx="2.5" cy="23.5" r="2.5" fill="#750B0B"/>
<circle cx="23.5" cy="23.5" r="2.5" fill="#750B0B"/>
<circle cx="44.5" cy="23.5" r="2.5" fill="#750B0B"/>
<circle cx="65.5" cy="23.5" r="2.5" fill="#750B0B"/>
<circle cx="86.5" cy="23.5" r="2.5" fill="#750B0B"/>
<circle cx="107.5" cy="23.5" r="2.5" fill="#750B0B"/>
<circle cx="128.5" cy="23.5" r="2.5" fill="#750B0B"/>
<circle cx="149.5" cy="23.5" r="2.5" fill="#750B0B"/>
<circle cx="2.5" cy="65.5" r="2.5" fill="#750B0B"/>
<circle cx="23.5" cy="65.5" r="2.5" fill="#750B0B"/>
<circle cx="44.5" cy="65.5" r="2.5" fill="#750B0B"/>
<circle cx="65.5" cy="65.5" r="2.5" fill="#750B0B"/>
<circle cx="86.5" cy="65.5" r="2.5" fill="#750B0B"/>
<circle cx="107.5" cy="65.5" r="2.5" fill="#750B0B"/>
<circle cx="128.5" cy="65.5" r="2.5" fill="#750B0B"/>
<circle cx="149.5" cy="65.5" r="2.5" fill="#750B0B"/>
</svg>
